<?xml version="1.0" standalone="no"?>
<!DOCTYPE svg PUBLIC "-//W3C//DTD SVG 20010904//EN"
 "http://www.w3.org/TR/2001/REC-SVG-20010904/DTD/svg10.dtd">
<svg version="1.0" xmlns="http://www.w3.org/2000/svg"
 width="882.000000pt" height="283.000000pt" viewBox="0 0 882.000000 283.000000"
 preserveAspectRatio="xMidYMid meet">

<g transform="translate(0.000000,283.000000) scale(0.100000,-0.100000)"
fill="#000000" stroke="none">
<path d="M985 2523 c-11 -3 -23 -8 -28 -12 -7 -7 16 -428 29 -533 3 -29 2 -48
-4 -48 -10 0 -15 14 -77 195 -91 264 -111 321 -121 338 -9 16 -14 16 -80 -7
-39 -13 -81 -30 -95 -37 -13 -8 -25 -15 -27 -15 -3 -1 196 -417 229 -477 11
-20 19 -42 17 -48 -3 -10 -53 39 -163 162 -27 31 -84 93 -125 139 -41 46 -83
92 -93 103 -17 20 -17 20 -49 -9 -41 -38 -112 -114 -116 -123 -1 -4 60 -62
135 -128 76 -67 173 -152 215 -189 85 -76 102 -108 41 -75 -59 31 -474 232
-486 234 -10 2 -69 -124 -82 -173 -6 -25 -3 -27 212 -100 120 -40 244 -82 276
-93 31 -10 57 -23 57 -28 0 -5 -24 -6 -52 -4 -29 3 -132 9 -228 15 -96 5 -208
12 -248 15 l-73 6 3 -108 3 -108 999 -3 c671 -1 1003 1 1010 8 11 11 15 194 5
204 -5 6 -484 -19 -551 -29 -58 -8 -45 12 19 31 32 9 65 21 73 25 15 9 127 48
320 111 52 17 96 32 97 32 5 3 -33 105 -56 152 l-26 53 -45 -20 c-25 -11 -52
-24 -60 -29 -8 -6 -25 -14 -36 -19 -12 -5 -101 -49 -198 -97 -97 -48 -179 -84
-182 -81 -3 3 11 21 33 40 21 19 50 46 64 58 133 121 203 184 256 230 34 30
61 61 62 69 0 8 -31 47 -69 85 l-70 70 -27 -30 c-31 -33 -192 -213 -232 -259
-125 -143 -167 -173 -123 -89 45 85 213 437 217 457 4 17 -3 25 -32 40 -65 32
-153 65 -157 58 -5 -9 -46 -124 -103 -292 -25 -74 -54 -161 -65 -192 -11 -32
-23 -58 -27 -58 -5 0 5 256 21 518 3 53 1 56 -22 63 -28 8 -135 9 -165 2z"/>
<path d="M2655 2220 c-11 -17 -44 -154 -39 -161 2 -4 15 -6 29 -3 35 6 37 -7
15 -72 -20 -59 -66 -212 -100 -334 -10 -36 -23 -78 -29 -95 -6 -16 -20 -63
-32 -102 l-22 -73 -37 0 c-36 0 -36 -1 -49 -52 -7 -29 -15 -61 -18 -70 -4 -17
7 -18 142 -18 l146 0 18 43 c10 23 22 57 26 75 6 31 5 33 -18 27 -14 -4 -27
-2 -31 3 -3 5 12 65 34 133 21 68 45 149 52 179 11 44 19 55 38 60 60 14 72 4
128 -108 29 -59 57 -114 62 -122 5 -8 23 -44 40 -80 18 -36 48 -96 68 -135
l37 -70 569 0 568 0 13 35 c16 43 72 244 91 325 29 129 22 120 94 123 91 4
110 -2 110 -38 0 -35 -46 -227 -85 -350 -7 -25 -16 -58 -20 -75 l-6 -30 103 3
c57 2 204 1 326 -3 l224 -7 -7 -47 c-3 -25 -8 -54 -11 -63 -5 -17 -80 -18
-1384 -18 l-1378 0 -5 -22 c-3 -13 -9 -44 -12 -70 l-7 -48 1448 0 c797 0 1455
4 1462 8 11 8 51 125 73 218 l10 41 172 6 c95 4 602 7 1128 7 l956 0 16 43 c8
23 27 87 42 142 15 55 39 139 53 188 l26 87 77 0 c67 0 78 -3 84 -19 6 -19
-26 -163 -71 -320 -39 -135 -74 -121 296 -121 250 0 320 -3 320 -12 -1 -7 -11
-37 -24 -66 l-22 -52 -1251 0 -1250 0 -12 -61 c-7 -34 -15 -67 -18 -75 -4 -12
192 -14 1345 -14 l1350 0 10 28 c6 15 21 63 33 107 20 76 65 232 76 265 3 8
20 69 39 135 18 66 49 173 67 237 19 65 32 120 29 123 -3 3 -98 5 -211 5 -198
0 -208 -1 -256 -25 -27 -13 -57 -30 -66 -37 -36 -29 -67 -99 -93 -208 -15 -63
-34 -136 -43 -162 l-15 -48 -74 0 c-88 0 -87 -2 -49 115 82 249 83 315 10 350
-26 12 -71 15 -214 15 -100 0 -181 -1 -181 -2 0 -2 -30 -88 -66 -193 -36 -104
-70 -206 -76 -225 -16 -55 -24 -60 -99 -60 -49 0 -69 4 -69 13 0 6 21 71 46
142 75 212 79 229 64 265 -23 55 -51 62 -235 58 l-164 -3 -43 -45 c-44 -47
-72 -114 -145 -347 l-26 -83 -74 0 c-62 0 -73 3 -73 17 0 19 48 175 147 476
82 250 82 276 -9 334 l-38 23 -317 -2 -317 -3 -17 -56 c-34 -118 -36 -109 20
-109 l49 0 -20 -52 c-11 -29 -25 -72 -31 -95 -6 -24 -15 -44 -21 -44 -6 -1
-28 -2 -50 -3 -38 -1 -38 -2 -62 -66 -35 -96 -33 -103 21 -98 51 4 56 -3 39
-52 -7 -19 -29 -88 -50 -152 l-36 -118 -289 0 c-198 0 -289 3 -289 11 0 14 78
287 85 299 5 9 21 66 39 143 l6 27 -218 0 c-206 0 -220 -1 -262 -22 -65 -33
-97 -89 -160 -280 l-55 -166 -58 -7 c-34 -4 -63 -3 -68 2 -6 6 7 60 36 149 65
196 68 215 49 263 -10 25 -25 43 -42 50 -18 8 -96 10 -226 9 l-198 -3 -14 -40
c-8 -22 -26 -76 -39 -120 -14 -44 -30 -93 -36 -110 -6 -16 -17 -55 -25 -85
-30 -113 -27 -110 -109 -110 -39 0 -74 3 -77 6 -4 3 0 20 7 37 7 18 13 34 13
37 1 3 3 12 6 20 72 198 116 335 116 361 0 7 -63 9 -207 7 l-208 -3 -51 -32
c-48 -31 -114 -108 -114 -133 0 -15 -56 -185 -74 -225 -8 -16 -16 -39 -18 -50
-3 -19 -11 -20 -122 -20 -95 0 -120 3 -127 15 -4 8 -20 44 -35 80 -15 36 -46
108 -70 161 -24 52 -44 98 -44 102 0 4 41 7 92 7 125 0 195 21 253 75 25 24
45 47 45 52 0 4 16 59 36 121 36 110 36 115 21 147 -10 21 -32 42 -56 55 -38
19 -58 20 -405 20 -225 0 -367 -4 -371 -10z m583 -165 c26 -5 32 -10 32 -31 0
-30 -21 -73 -47 -96 -16 -15 -45 -17 -213 -18 -107 -1 -195 2 -195 7 0 4 10
40 23 78 l23 70 172 -3 c95 -1 187 -5 205 -7z m3357 -10 c26 -26 31 -49 16
-87 -5 -13 -21 -66 -36 -118 -15 -52 -30 -106 -35 -120 -4 -14 -25 -88 -47
-164 -31 -113 -43 -142 -63 -155 -30 -20 -320 -31 -320 -12 0 6 9 44 21 84 11
39 30 107 41 149 20 76 20 77 56 80 35 3 35 4 58 83 13 44 24 81 24 83 0 1
-11 2 -24 2 -14 0 -27 3 -29 8 -2 4 7 39 20 77 13 39 27 80 30 93 5 21 9 22
135 22 124 0 130 -1 153 -25z m-2694 -348 c-4 -12 -16 -49 -26 -82 -9 -33 -21
-71 -25 -85 -5 -14 -16 -51 -25 -82 l-16 -58 -94 0 c-52 0 -95 4 -95 9 0 5 9
39 21 77 11 37 29 99 39 138 26 99 44 112 149 108 77 -3 80 -4 72 -25z m1352
1 c-3 -13 -20 -72 -38 -133 -18 -60 -37 -126 -42 -145 l-9 -35 -107 -3 c-59
-1 -107 1 -107 5 0 4 14 66 32 137 27 107 37 135 64 162 31 34 32 34 122 34
88 0 90 0 85 -22z m1935 -35 c2 -18 -6 -53 -17 -79 -12 -26 -21 -51 -21 -56 0
-6 -6 -24 -14 -41 -8 -18 -20 -49 -26 -69 l-12 -38 -87 0 c-48 0 -90 3 -93 6
-6 5 1 31 42 169 12 39 23 78 25 89 10 46 34 57 119 54 l81 -3 3 -32z m1332
25 c0 -7 -11 -46 -25 -88 -13 -41 -35 -106 -47 -145 l-23 -70 -92 -3 c-51 -1
-93 0 -93 3 0 4 14 61 31 128 26 106 35 126 64 155 33 30 39 32 110 32 52 0
75 -4 75 -12z"/>
<path d="M7091 1974 c-12 -15 -21 -31 -21 -35 0 -5 43 -9 95 -9 52 0 95 4 95
9 0 5 -4 21 -10 35 -9 24 -14 26 -74 26 -58 0 -67 -3 -85 -26z"/>
<path d="M276 1341 c-3 -4 -5 -24 -4 -42 0 -19 -6 -48 -14 -64 -8 -17 -23 -56
-33 -88 -9 -32 -24 -61 -31 -64 -29 -11 -15 -33 21 -33 33 0 35 2 35 31 0 17
8 53 17 80 29 80 50 66 98 -63 l18 -48 157 0 c114 0 160 3 167 13 5 6 18 40
28 75 17 57 20 62 47 62 33 0 34 -5 9 -87 l-19 -63 87 0 c48 0 90 -3 93 -6 3
-3 4 -14 1 -25 -5 -18 -17 -19 -381 -19 -374 0 -375 0 -357 -20 17 -19 31 -20
379 -20 199 0 366 4 372 8 6 4 17 24 23 45 l13 37 323 0 324 0 20 55 c12 31
21 62 21 70 0 10 10 15 30 15 35 0 36 -7 15 -76 -8 -27 -15 -52 -15 -56 0 -5
37 -8 83 -8 46 0 86 -3 89 -6 3 -3 4 -14 1 -24 -5 -19 -19 -20 -366 -22 -335
-3 -362 -4 -365 -20 -3 -17 20 -18 376 -18 l380 0 33 98 c18 53 34 99 34 102
1 3 7 18 14 34 6 16 9 31 7 33 -3 3 -32 5 -65 6 -52 0 -63 -3 -80 -24 -11 -13
-25 -45 -31 -71 -11 -43 -15 -48 -40 -48 l-28 0 18 60 c23 76 12 93 -57 88
l-45 -3 -30 -78 c-27 -68 -33 -77 -52 -71 -30 9 -29 9 -11 48 9 19 18 50 18
68 2 28 -2 34 -22 36 -13 2 -38 1 -56 -2 -28 -6 -36 -14 -57 -64 -14 -31 -28
-65 -31 -74 -7 -19 -42 -25 -51 -9 -3 4 6 37 20 72 75 188 74 191 -60 187 -80
-3 -91 -5 -94 -22 -2 -10 1 -22 8 -26 14 -9 -7 -60 -26 -60 -7 0 -18 -9 -24
-19 -13 -26 -13 -32 3 -28 14 2 13 -13 -5 -65 l-13 -38 -87 0 c-49 0 -88 1
-88 3 0 1 9 31 20 66 11 35 18 66 15 69 -3 3 -31 5 -63 3 -66 -2 -80 -14 -108
-89 -20 -51 -30 -63 -51 -55 -18 7 -16 23 8 78 20 45 20 49 5 61 -14 10 -55
12 -112 5 -6 0 -21 -32 -33 -70 -19 -57 -27 -70 -47 -74 -28 -5 -41 8 -26 26
16 19 44 106 37 117 -3 5 -28 7 -56 5 -53 -3 -84 -22 -95 -59 -3 -11 -13 -36
-21 -53 -13 -28 -20 -33 -52 -33 -34 0 -37 2 -54 49 -22 63 -22 71 7 71 51 0
83 19 95 59 15 51 14 68 -5 75 -24 9 -202 7 -208 -3z m1110 -129 c-16 -42 -31
-87 -33 -99 -5 -20 -11 -23 -59 -23 -30 0 -54 4 -54 9 0 19 33 87 47 94 8 5
13 20 12 35 -5 52 8 71 54 74 23 2 46 -1 52 -5 6 -5 -1 -36 -19 -85z m-936 76
c0 -28 -17 -36 -78 -39 -63 -4 -69 0 -56 35 8 21 134 24 134 4z m170 -107 c0
-11 -4 -22 -9 -25 -5 -3 -12 -18 -16 -33 -8 -33 -20 -42 -46 -36 -23 6 -24 19
-5 64 18 43 24 49 53 49 16 0 23 -6 23 -19z m390 11 c0 -5 -7 -29 -16 -55 -15
-45 -18 -47 -54 -47 l-38 0 16 43 c8 23 20 48 25 55 10 13 67 17 67 4z m933
-8 c-14 -66 -27 -92 -48 -97 -13 -2 -28 -1 -34 2 -16 10 6 78 30 95 22 15 55
15 52 0z m-381 0 c4 -3 -3 -27 -13 -53 -19 -43 -23 -47 -50 -43 -34 5 -34 4
-13 59 14 36 21 43 44 43 15 0 29 -3 32 -6z"/>
<path d="M1545 1270 c-3 -5 3 -10 15 -10 12 0 18 5 15 10 -3 6 -10 10 -15 10
-5 0 -12 -4 -15 -10z"/>
<path d="M3555 1180 c-13 -21 7 -26 92 -26 75 1 88 3 91 19 3 15 -6 17 -87 17
-49 0 -93 -4 -96 -10z"/>
<path d="M538 1023 c7 -3 16 -2 19 1 4 3 -2 6 -13 5 -11 0 -14 -3 -6 -6z"/>
<path d="M463 890 l-183 -5 18 -26 c27 -42 84 -101 132 -139 25 -19 47 -38 48
-42 2 -5 8 -8 14 -8 5 0 35 -15 67 -34 104 -61 297 -116 456 -131 91 -8 242
14 365 55 151 50 283 135 410 264 l64 66 -364 1 c-201 0 -473 2 -605 3 -132 1
-322 -1 -422 -4z"/>
</g>
</svg>
